<?xml version="1.0" encoding="UTF-8" standalone="no"?>
<!-- Generator: Adobe Illustrator 22.0.1, SVG Export Plug-In . SVG Version: 6.00 Build 0)  -->

<svg
   xmlns:dc="http://purl.org/dc/elements/1.1/"
   xmlns:cc="http://creativecommons.org/ns#"
   xmlns:rdf="http://www.w3.org/1999/02/22-rdf-syntax-ns#"
   xmlns:svg="http://www.w3.org/2000/svg"
   xmlns="http://www.w3.org/2000/svg"
   xmlns:sodipodi="http://sodipodi.sourceforge.net/DTD/sodipodi-0.dtd"
   xmlns:inkscape="http://www.inkscape.org/namespaces/inkscape"
   version="1.1"
   x="0px"
   y="0px"
   viewBox="0 0 128 128"
   style="enable-background:new 0 0 128 128;"
   xml:space="preserve"
   id="svg259"
   sodipodi:docname="6.svg"
   inkscape:version="0.92.4 (5da689c313, 2019-01-14)"><metadata
   id="metadata265"><rdf:RDF><cc:Work
       rdf:about=""><dc:format>image/svg+xml</dc:format><dc:type
         rdf:resource="http://purl.org/dc/dcmitype/StillImage" /></cc:Work></rdf:RDF></metadata><defs
   id="defs263" /><sodipodi:namedview
   pagecolor="#ffffff"
   bordercolor="#666666"
   borderopacity="1"
   objecttolerance="10"
   gridtolerance="10"
   guidetolerance="10"
   inkscape:pageopacity="0"
   inkscape:pageshadow="2"
   inkscape:window-width="640"
   inkscape:window-height="480"
   id="namedview261"
   showgrid="false"
   inkscape:zoom="1.84375"
   inkscape:cx="64"
   inkscape:cy="64"
   inkscape:window-x="0"
   inkscape:window-y="0"
   inkscape:window-maximized="0"
   inkscape:current-layer="svg259" />
<g
   id="_x36_"
   style="fill:#b3b3b3">
	<path
   style="fill:#b3b3b3"
   d="M110.933,0H17.067C7.641,0,0,7.641,0,17.067v93.867C0,120.359,7.641,128,17.067,128h93.867   c9.426,0,17.067-7.641,17.067-17.067V17.067C128,7.641,120.359,0,110.933,0z M36.386,101.911c-4.999,4.999-13.103,4.999-18.102,0   c-4.999-4.999-4.999-13.103,0-18.102c4.999-4.999,13.103-4.999,18.102,0C41.385,88.808,41.385,96.913,36.386,101.911z    M36.386,44.19c-4.999,4.999-13.103,4.999-18.102,0s-4.999-13.103,0-18.102s13.103-4.999,18.102,0   C41.385,31.087,41.385,39.192,36.386,44.19z M73.051,101.911c-4.999,4.999-13.103,4.999-18.102,0   c-4.999-4.999-4.999-13.103,0-18.102c4.999-4.999,13.103-4.999,18.102,0C78.05,88.808,78.05,96.913,73.051,101.911z M73.051,44.19   c-4.999,4.999-13.103,4.999-18.102,0c-4.999-4.999-4.999-13.103,0-18.102c4.999-4.999,13.103-4.999,18.102,0   C78.05,31.087,78.05,39.192,73.051,44.19z M109.716,101.911c-4.999,4.999-13.103,4.999-18.102,0   c-4.999-4.999-4.999-13.103,0-18.102c4.999-4.999,13.103-4.999,18.102,0C114.715,88.808,114.715,96.913,109.716,101.911z    M109.716,44.19c-4.999,4.999-13.103,4.999-18.102,0c-4.999-4.999-4.999-13.103,0-18.102c4.999-4.999,13.103-4.999,18.102,0   C114.715,31.087,114.715,39.192,109.716,44.19z"
   id="path255" />
</g>
<g
   id="Layer_1">
</g>
</svg>